<svg id="Layer_1" data-name="Layer 1" xmlns="http://www.w3.org/2000/svg" viewBox="0 0 42.8 18.78"><defs><style>.cls-1{fill:#444;}.cls-2{fill:#fff;}</style></defs><path class="cls-1" d="M231,259.39,228.6,257l6.92-6.9-6.89-6.89,2.48-2.48,6.81,6.82,6.86-6.85,2.49,2.49L240.45,250l7,7-2.55,2.39h-.09a1.83,1.83,0,0,0-.13-.16l-6.49-6.49a2.54,2.54,0,0,0-.24-.2l-5.26,5.26-1.56,1.59Z" transform="translate(-228.6 -240.61)"/><path class="cls-2" d="M271.4,250a9.35,9.35,0,1,1-9.32-9.36A9.34,9.34,0,0,1,271.4,250Zm-9.26,7a7,7,0,1,0-7-7A7,7,0,0,0,262.14,257Z" transform="translate(-228.6 -240.61)"/></svg>